<?xml version="1.0" encoding="utf-8"?>
<!-- Generator: Adobe Illustrator 23.0.1, SVG Export Plug-In . SVG Version: 6.00 Build 0)  -->
<svg version="1.1" id="Calque_1" xmlns="http://www.w3.org/2000/svg" xmlns:xlink="http://www.w3.org/1999/xlink" x="0px" y="0px"
	 viewBox="0 0 1470.6 486.7" style="enable-background:new 0 0 1470.6 486.7;" xml:space="preserve">
<style type="text/css">
	.st0{fill:none;stroke:#DC6C2F;stroke-width:21.6855;stroke-miterlimit:10;}
	.st1{fill:#DC6C2F;stroke:#DC6C2F;stroke-width:16.8746;stroke-miterlimit:10;}
	.st2{fill:#DC6C2F;}
	.st3{fill:#FFFFFF;}
</style>
<path class="st0" d="M1339.8,473H81c-38.8,0-70.3-31.5-70.3-70.3V84c0-38.8,31.5-70.3,70.3-70.3h1258.8c38.8,0,70.3,31.5,70.3,70.3
	v318.6C1410.2,441.5,1378.7,473,1339.8,473z"/>
<rect x="1425.3" y="156.4" class="st1" width="32.9" height="173.9"/>
<g>
	<path d="M239.1,169.8c0,22.6-4.8,43.8-14,61.4c-1.6,3-3.3,6-5.2,8.8c-12.4,18.8-28.9,29.1-46.4,29.1h-69.8l-49.1-74.5V70.4h118.9
		c17.5,0,34,10.3,46.4,29.1c8.6,13,14.6,29.2,17.4,46.8C238.5,154,239.1,161.9,239.1,169.8z M54.6,233.3l55.6,84.3v91.8H54.6V233.3z
		 M181.8,169.8c0-2.3-0.2-4.6-0.5-6.8c-0.8-5.1-2.6-9.8-5.1-13.6c-3.6-5.5-8.4-8.5-13.5-8.5h-52.5v11.4l30.6,46.3h21.9
		c5.1,0,9.9-3,13.5-8.5c0.6-0.8,1.1-1.7,1.5-2.6l0,0C180.4,182.6,181.8,176.4,181.8,169.8z"/>
	<path d="M323.8,327.1l54.3,82.3H258.3V68.8H314v256.3h8.5L323.8,327.1z M414.7,325.1v84.3h-11.1l-55.6-84.3H414.7z"/>
	<path d="M529.9,169.6l32.5,81.5L499,409.4h-65.1L529.9,169.6z M711.6,409.4h-65.1l-13.5-33.7l-92.6-232.4l32.3-80.8L711.6,409.4z"
		/>
	<path d="M937.9,59.2v350.2h-52.5l-2.2-3.3L822,313.3l-35.5-53.9v0.1l-55.6-84.3V68.8h8.7l1.3,2l141.4,214.3V143.5l1.3-2L937.9,59.2
		z M730.9,213.6l55.6,84.3v111.5h-55.6V213.6z"/>
	<path class="st2" d="M1195,169.6l32.5,81.5l-63.4,158.3h-65.1L1195,169.6z M1376.8,409.4h-65.1l-13.5-33.7l-92.6-232.4l32.3-80.8
		L1376.8,409.4z"/>
</g>
<path class="st3" d="M-103.7,44c-6.4,0-6.4,10,0,10C-97.2,54-97.2,44-103.7,44z"/>
</svg>
